<svg width="24" height="24" viewBox="0 0 24 24" fill="none" xmlns="http://www.w3.org/2000/svg">
<path d="M22 12H18.7539C17.6185 12 16.517 12.3864 15.6304 13.0957L14.4988 14.001C13.0379 15.1697 10.9621 15.1697 9.50122 14.001L8.36957 13.0957C7.48301 12.3864 6.38145 12 5.24609 12H2" stroke="#1B9B85" stroke-width="1.5" stroke-linecap="round"/>
<path d="M2 6C2 3.79086 3.79086 2 6 2H18C20.2091 2 22 3.79086 22 6V18C22 20.2091 20.2091 22 18 22H6C3.79086 22 2 20.2091 2 18V6Z" stroke="#1B9B85" stroke-width="1.5"/>
<path d="M2 11C2 8.79086 3.79086 7 6 7H18C20.2091 7 22 8.79086 22 11V18C22 20.2091 20.2091 22 18 22H6C3.79086 22 2 20.2091 2 18V11Z" stroke="#1B9B85" stroke-width="1.5"/>
</svg>
