<svg width="24" height="24" viewBox="0 0 24 24" fill="none" xmlns="http://www.w3.org/2000/svg">
<path d="M12.9145 2.02851L10.1055 4.50006L9 5.49904H18.5555L15.3102 2.74525C14.6101 2.22156 13.785 1.39639 12.9145 2.02851Z" stroke="#1B9B85" stroke-width="1.5"/>
<path d="M11.3102 2.74525C10.6101 2.22156 9.78496 1.39639 8.91453 2.02851L6.10547 4.50006L5 5.49904H14.5555" stroke="#1B9B85" stroke-width="1.5"/>
<path d="M22 10.8333V16.1667C22 19.3667 20 21.5 17 21.5H7C4 21.5 2 19.3667 2 16.1667V10.8333C2 7.932 3.64 5.90533 6.19 5.564C6.45 5.52133 6.72 5.5 7 5.5H17C17.26 5.5 17.51 5.51065 17.75 5.55332C20.33 5.87332 22 7.91067 22 10.8333Z" stroke="#1B9B85" stroke-width="1.5" stroke-linecap="round" stroke-linejoin="round"/>
<path d="M18 11.5H21.1429C21.6162 11.5 22 11.8838 22 12.3571V14.6429C22 15.1162 21.6162 15.5 21.1429 15.5H18C16.8954 15.5 16 14.6046 16 13.5C16 12.3954 16.8954 11.5 18 11.5Z" stroke="#1B9B85" stroke-width="1.5" stroke-linecap="round"/>
</svg>
