<svg width="22" height="23" viewBox="0 0 22 23" fill="none" xmlns="http://www.w3.org/2000/svg">
<path fill-rule="evenodd" clip-rule="evenodd" d="M5 0.75C2.37665 0.75 0.25 2.87665 0.25 5.5V10.5C0.25 7.87665 2.37665 5.75 5 5.75H17C19.6234 5.75 21.75 7.87665 21.75 10.5V5.5C21.75 2.87665 19.6234 0.75 17 0.75H5Z" fill="#1B9B85"/>
<path fill-rule="evenodd" clip-rule="evenodd" d="M4.86047 7C2.30253 7 0.206107 8.87253 0.014307 11.25H4.15475C5.43673 11.25 6.68195 11.6784 7.69255 12.4672L9.00037 13.4879C10.1757 14.4052 11.8243 14.4052 12.9996 13.4879L14.3074 12.4672C15.3181 11.6784 16.5633 11.25 17.8453 11.25H21.9857C21.7939 8.87253 19.6975 7 17.1395 7H4.86047ZM22 12.75H17.8453C16.8977 12.75 15.9773 13.0667 15.2304 13.6497L13.9225 14.6704C12.2048 16.0111 9.79519 16.0111 8.07746 14.6704L6.76965 13.6497C6.02268 13.0667 5.1023 12.75 4.15475 12.75H0V18.3939C0 20.9378 2.1761 23 4.86047 23H17.1395C19.8239 23 22 20.9378 22 18.3939V12.75Z" fill="#1B9B85"/>
</svg>
