<svg width="23" height="20" viewBox="0 0 23 20" fill="none" xmlns="http://www.w3.org/2000/svg">
<path fill-rule="evenodd" clip-rule="evenodd" d="M0.25 5C0.25 2.37665 2.28213 0.25 4.78889 0.25H17.2111C19.7179 0.25 21.75 2.37665 21.75 5V6.25H0.25V5ZM0.25 7.75H21.75V10.7751L21.4445 10.4697C20.3706 9.39575 18.6294 9.39575 17.5555 10.4697L14.7037 13.3214C14.1434 13.8818 13.852 14.6566 13.9043 15.4473L13.9827 16.6348C14.01 17.0469 14.1474 17.4284 14.366 17.75H4.78889C2.28213 17.75 0.25 15.6234 0.25 13V7.75Z" fill="#1B9B85"/>
<path fill-rule="evenodd" clip-rule="evenodd" d="M19.6768 12.2374C19.5791 12.1398 19.4209 12.1398 19.3232 12.2374L16.4715 15.0892C16.4206 15.1401 16.3941 15.2105 16.3988 15.2824L16.4628 16.2514L17.4318 16.3154C17.5037 16.3201 17.5741 16.2936 17.625 16.2427L20.4768 13.391C20.5744 13.2933 20.5744 13.1351 20.4768 13.0374L19.6768 12.2374ZM18.2626 11.1768C18.946 10.4934 20.054 10.4934 20.7374 11.1768L21.5374 11.9768C22.2208 12.6602 22.2209 13.7682 21.5374 14.4516L18.6857 17.3034C18.3291 17.6599 17.8361 17.8454 17.3329 17.8121L16.1454 17.7336C15.52 17.6923 15.0219 17.1942 14.9806 16.5688L14.9021 15.3813C14.8688 14.8781 15.0543 14.3851 15.4108 14.0285L18.2626 11.1768Z" fill="#1B9B85"/>
</svg>
