<svg width="22" height="20" viewBox="0 0 22 20" fill="none" xmlns="http://www.w3.org/2000/svg">
<path fill-rule="evenodd" clip-rule="evenodd" d="M0.25 5C0.25 2.37665 2.28213 0.25 4.78889 0.25H17.2111C19.7179 0.25 21.75 2.37665 21.75 5V6.25H0.25V5ZM0.25 7.75H21.75V13C21.75 13.384 21.7065 13.7574 21.6243 14.115L19.8891 12.2931C19.2226 11.5932 18.1149 11.5662 17.415 12.2328C16.8536 12.7674 16.7251 13.5858 17.0402 14.25H13.86C12.8935 14.25 12.11 15.0335 12.11 16C12.11 16.9653 12.8915 17.748 13.8563 17.75H4.78889C2.28213 17.75 0.25 15.6234 0.25 13V7.75Z" fill="#1B9B85"/>
<path fill-rule="evenodd" clip-rule="evenodd" d="M17.9697 12.9697C18.2626 12.6768 18.7374 12.6768 19.0303 12.9697L21.5303 15.4697C21.8232 15.7626 21.8232 16.2374 21.5303 16.5303L19.0303 19.0303C18.7374 19.3232 18.2626 19.3232 17.9697 19.0303C17.6768 18.7374 17.6768 18.2626 17.9697 17.9697L19.1893 16.75H13.5C13.0858 16.75 12.75 16.4142 12.75 16C12.75 15.5858 13.0858 15.25 13.5 15.25H19.1893L17.9697 14.0303C17.6768 13.7374 17.6768 13.2626 17.9697 12.9697Z" fill="#1B9B85"/>
</svg>
