<svg width="23" height="18" viewBox="0 0 23 18" fill="none" xmlns="http://www.w3.org/2000/svg">
<path fill-rule="evenodd" clip-rule="evenodd" d="M20.75 9.9365C20.0676 10.4127 19.1215 10.3464 18.5126 9.73744L16.9394 8.16429H0.75V12.7714C0.75 15.2449 2.64035 17.25 4.97222 17.25H16.5278C18.8596 17.25 20.75 15.2449 20.75 12.7714V9.9365ZM18.2315 1.12956C17.7104 0.885523 17.134 0.75 16.5278 0.75H4.97222C2.64035 0.75 0.75 2.75512 0.75 5.22857V6.75H15.6683C15.3603 6.10032 15.475 5.3001 16.0126 4.76256C16.5501 4.22503 17.3503 4.11029 18 4.41833V2C18 1.68313 18.0842 1.38593 18.2315 1.12956Z" fill="#1B9B85"/>
<path fill-rule="evenodd" clip-rule="evenodd" d="M19.2197 9.03033C19.5126 9.32322 19.9874 9.32322 20.2803 9.03033L22.7803 6.53033C23.0732 6.23744 23.0732 5.76256 22.7803 5.46967C22.4874 5.17678 22.0126 5.17678 21.7197 5.46967L20.5 6.68934L20.5 2C20.5 1.58579 20.1642 1.25 19.75 1.25C19.3358 1.25 19 1.58579 19 2L19 6.68934L17.7803 5.46967C17.4874 5.17678 17.0126 5.17678 16.7197 5.46967C16.4268 5.76256 16.4268 6.23744 16.7197 6.53033L19.2197 9.03033Z" fill="#1B9B85"/>
</svg>
