<svg width="23" height="18" viewBox="0 0 23 18" fill="none" xmlns="http://www.w3.org/2000/svg">
<path d="M1 7H21" stroke="#1B9B85" stroke-width="1.5" stroke-linecap="round"/>
<path d="M11.9524 17H4.80952C2.70558 17 1 15.2091 1 13V5C1 2.79086 2.70558 1 4.80952 1H17.1905C19.2944 1 21 2.79086 21 5V9" stroke="#1B9B85" stroke-width="1.5" stroke-linecap="round"/>
<path d="M18.1555 16.773L21.0073 13.9213C21.3978 13.5308 21.3978 12.8976 21.0073 12.5071L20.2073 11.7071C19.8167 11.3166 19.1836 11.3166 18.7931 11.7071L15.9413 14.5588C15.7376 14.7626 15.6316 15.0443 15.6506 15.3318L15.7291 16.5193C15.7456 16.7695 15.9449 16.9687 16.195 16.9853L17.3825 17.0637C17.67 17.0827 17.9518 16.9768 18.1555 16.773Z" stroke="#1B9B85" stroke-width="1.5" stroke-linecap="round"/>
</svg>
