<svg width="25" height="24" viewBox="0 0 25 24" fill="none" xmlns="http://www.w3.org/2000/svg">
<path opacity="0.998" fill-rule="evenodd" clip-rule="evenodd" d="M11.4219 0C12.1406 0 12.8594 0 13.5781 0C17.7802 0.513378 20.9443 2.60375 23.0703 6.27112C23.8529 7.75502 24.3294 9.32671 24.5 10.9862C24.5 11.7092 24.5 12.4322 24.5 13.1552C23.9896 17.3821 21.9115 20.5648 18.2656 22.7033C17.0445 23.3669 15.7476 23.7991 14.375 24C14.375 21.1866 14.375 18.3733 14.375 15.5599C15.3125 15.5599 16.25 15.5599 17.1875 15.5599C17.3593 14.3969 17.5312 13.2339 17.7031 12.0707C16.5937 12.0707 15.4844 12.0707 14.375 12.0707C14.3672 11.1904 14.375 10.3103 14.3984 9.43026C14.5153 8.66824 14.945 8.1889 15.6875 7.99214C16.4042 7.92618 17.123 7.9026 17.8438 7.92141C17.8742 6.91242 17.8429 5.91442 17.75 4.92731C16.6773 4.76629 15.5991 4.70344 14.5156 4.7387C12.5757 4.94546 11.3335 5.99066 10.7891 7.87426C10.7219 8.15368 10.6751 8.43659 10.6484 8.72299C10.625 9.83877 10.6172 10.9547 10.625 12.0707C9.60936 12.0707 8.59377 12.0707 7.57812 12.0707C7.57812 13.2338 7.57812 14.3968 7.57812 15.5599C8.59377 15.5599 9.60936 15.5599 10.625 15.5599C10.625 18.3733 10.625 21.1866 10.625 24C6.30177 23.2109 3.23144 20.8062 1.41406 16.7859C0.938962 15.6129 0.634274 14.4027 0.5 13.1552C0.5 12.4322 0.5 11.7092 0.5 10.9862C1.01035 6.75947 3.08848 3.57677 6.73438 1.43811C8.20958 0.650938 9.77206 0.171565 11.4219 0Z" fill="#1877F2"/>
</svg>
