<svg width="24" height="24" viewBox="0 0 24 24" fill="none" xmlns="http://www.w3.org/2000/svg">
<path opacity="0.995" fill-rule="evenodd" clip-rule="evenodd" d="M10.9687 0C11.3125 0 11.6563 0 12 0C12 1.57813 12 3.15625 12 4.73438C9.25326 4.82578 7.15954 6.02892 5.71875 8.34375C4.33251 7.58255 2.95751 6.80133 1.59375 6C3.72457 2.46571 6.84956 0.465715 10.9687 0Z" fill="#FF4B25"/>
<path fill-rule="evenodd" clip-rule="evenodd" d="M12 0C12.3437 0 12.6875 0 13.0312 0C15.547 0.25803 17.7814 1.18772 19.7344 2.78906C20.1626 3.10487 20.2642 3.50331 20.0391 3.98438C19.2187 4.80469 18.3984 5.625 17.5781 6.44531C17.3194 6.5782 17.0538 6.59386 16.7812 6.49219C15.4024 5.33709 13.8086 4.75116 12 4.73438C12 3.15625 12 1.57813 12 0Z" fill="#D93F21"/>
<path opacity="0.994" fill-rule="evenodd" clip-rule="evenodd" d="M1.59375 6C2.95751 6.80133 4.33251 7.58255 5.71875 8.34375C4.52114 10.5408 4.41958 12.7908 5.41406 15.0938C5.50753 15.288 5.60911 15.4755 5.71875 15.6562C4.34503 16.437 2.97003 17.2182 1.59375 18C0.705309 16.4753 0.174058 14.8347 0 13.0781C0 12.3594 0 11.6406 0 10.9219C0.174058 9.16533 0.705309 7.5247 1.59375 6Z" fill="#FED400"/>
<path opacity="0.992" fill-rule="evenodd" clip-rule="evenodd" d="M24 11.1563C24 11.8282 24 12.5001 24 13.1719C23.5172 17.2495 21.5172 20.3277 18 22.4063C17.2193 21.0326 16.4381 19.6576 15.6563 18.2813C17.1108 17.4205 18.142 16.2018 18.75 14.6251C16.8593 14.6329 14.9687 14.6251 13.0781 14.6016C12.8245 14.5199 12.6448 14.3559 12.5391 14.1094C12.5078 12.8751 12.5078 11.6407 12.5391 10.4063C12.6225 10.2136 12.7553 10.0652 12.9375 9.961C16.388 9.88333 19.8411 9.86767 23.2969 9.91412C23.4991 9.97534 23.6631 10.0925 23.7891 10.2657C23.89 10.561 23.9603 10.8579 24 11.1563Z" fill="#167DE6"/>
<path opacity="0.995" fill-rule="evenodd" clip-rule="evenodd" d="M5.71875 15.6562C7.15954 17.9711 9.25326 19.1742 12 19.2656C12 20.8438 12 22.4219 12 24C11.6563 24 11.3125 24 10.9687 24C6.84956 23.5343 3.72457 21.5343 1.59375 18C2.97003 17.2182 4.34503 16.437 5.71875 15.6562Z" fill="#12B346"/>
<path fill-rule="evenodd" clip-rule="evenodd" d="M15.6562 18.2812C16.4381 19.6575 17.2193 21.0325 18 22.4062C16.4616 23.3045 14.8053 23.8358 13.0312 24C12.6875 24 12.3437 24 12 24C12 22.4219 12 20.8438 12 19.2656C13.3119 19.2736 14.5307 18.9455 15.6562 18.2812Z" fill="#0F993E"/>
</svg>
