<svg width="24" height="24" viewBox="0 0 24 24" fill="none" xmlns="http://www.w3.org/2000/svg">
<path fill-rule="evenodd" clip-rule="evenodd" d="M19.4697 4.46967C19.7626 4.17678 20.2374 4.17678 20.5303 4.46967L23.0303 6.96967C23.3232 7.26256 23.3232 7.73744 23.0303 8.03033C22.7374 8.32322 22.2626 8.32322 21.9697 8.03033L20.75 6.81066L20.75 11.5C20.75 11.9142 20.4142 12.25 20 12.25C19.5858 12.25 19.25 11.9142 19.25 11.5L19.25 6.81066L18.0303 8.03033C17.7374 8.32322 17.2626 8.32322 16.9697 8.03033C16.6768 7.73744 16.6768 7.26256 16.9697 6.96967L19.4697 4.46967Z" fill="#1B9B85"/>
<path fill-rule="evenodd" clip-rule="evenodd" d="M0.75 8.5C0.75 5.87665 2.77538 3.75 5.27381 3.75H15.3248C15.7193 3.75 16.0391 4.08579 16.0391 4.5C16.0391 4.91421 15.7193 5.25 15.3248 5.25H5.27381C3.56436 5.25 2.17857 6.70507 2.17857 8.5V9.75H15.3248C15.7193 9.75 16.0391 10.0858 16.0391 10.5C16.0391 10.9142 15.7193 11.25 15.3248 11.25H2.17857V15.5C2.17857 17.2949 3.56436 18.75 5.27381 18.75H16.4643C18.0422 18.75 19.3214 17.4069 19.3214 15.75V14.6953C19.3214 14.2811 19.6412 13.9453 20.0357 13.9453C20.4302 13.9453 20.75 14.2811 20.75 14.6953V15.75C20.75 18.2353 18.8312 20.25 16.4643 20.25H5.27381C2.77538 20.25 0.75 18.1234 0.75 15.5V8.5Z" fill="#1B9B85"/>
</svg>
