<svg width="24" height="24" viewBox="0 0 24 24" fill="none" xmlns="http://www.w3.org/2000/svg">
<path fill-rule="evenodd" clip-rule="evenodd" d="M18.1726 4.10254C17.6671 3.87554 17.1113 3.75 16.5278 3.75H4.97222C2.64035 3.75 0.75 5.75512 0.75 8.22857V9.75H18V9.08167C17.3503 9.38971 16.5501 9.27497 16.0126 8.73744C15.3291 8.05402 15.3291 6.94598 16.0126 6.26256L18.1726 4.10254ZM18 11.1643H0.75V15.7714C0.75 18.2449 2.64035 20.25 4.97222 20.25H16.5278C18.8596 20.25 20.75 18.2449 20.75 15.7714V12.9363C20.4665 13.134 20.1218 13.25 19.75 13.25C18.7835 13.25 18 12.4665 18 11.5V11.1643Z" fill="#1B9B85"/>
<path fill-rule="evenodd" clip-rule="evenodd" d="M19.4697 4.46967C19.7626 4.17678 20.2374 4.17678 20.5303 4.46967L23.0303 6.96967C23.3232 7.26256 23.3232 7.73744 23.0303 8.03033C22.7374 8.32322 22.2626 8.32322 21.9697 8.03033L20.75 6.81066V11.5C20.75 11.9142 20.4142 12.25 20 12.25C19.5858 12.25 19.25 11.9142 19.25 11.5L19.25 6.81066L18.0303 8.03033C17.7374 8.32322 17.2626 8.32322 16.9697 8.03033C16.6768 7.73744 16.6768 7.26256 16.9697 6.96967L19.4697 4.46967Z" fill="#1B9B85"/>
</svg>
