<svg width="23" height="22" viewBox="0 0 23 22" fill="none" xmlns="http://www.w3.org/2000/svg">
<path opacity="0.963" fill-rule="evenodd" clip-rule="evenodd" d="M22.9785 10.7207C22.9785 10.8926 22.9785 11.0645 22.9785 11.2363C21.1925 14.2321 18.643 16.2874 15.3301 17.4023C10.4001 18.5947 6.21069 17.3415 2.76172 13.6426C2.09035 12.8932 1.49595 12.0911 0.978516 11.2363C0.978516 11.0645 0.978516 10.8926 0.978516 10.7207C2.76456 7.72497 5.31406 5.6696 8.62695 4.55469C13.5563 3.3621 17.7458 4.61536 21.1953 8.31445C21.8667 9.06387 22.4611 9.86597 22.9785 10.7207ZM11.9355 5.47852C14.7399 5.56536 17.1749 6.54646 19.2402 8.42188C20.0753 9.19188 20.8058 10.0441 21.4316 10.9785C20.1328 12.9723 18.414 14.4834 16.2754 15.5117C12.0158 17.2152 8.16293 16.5563 4.7168 13.5352C3.88176 12.7652 3.15129 11.913 2.52539 10.9785C3.82423 8.98472 5.543 7.47364 7.68164 6.44531C9.03984 5.83438 10.4578 5.51212 11.9355 5.47852Z" fill="#263834"/>
<path opacity="0.964" fill-rule="evenodd" clip-rule="evenodd" d="M11.3769 6.8535C13.5038 6.69873 15.0006 7.58676 15.8671 9.51756C16.4915 11.6409 15.8971 13.3239 14.0839 14.5664C13.1247 15.0986 12.1078 15.249 11.0331 15.0176C9.2712 14.5232 8.21847 13.3774 7.87493 11.5801C7.69927 9.45204 8.58013 7.95531 10.5175 7.08983C10.8057 6.99642 11.0922 6.91765 11.3769 6.8535ZM11.9355 8.2285C11.2956 8.26881 10.7227 8.49078 10.2167 8.89452C9.19738 9.88091 8.98967 11.0196 9.59368 12.3105C10.478 13.6127 11.6597 13.9922 13.1386 13.4492C14.3896 12.7589 14.8837 11.7062 14.621 10.291C14.1814 9.01384 13.2862 8.32634 11.9355 8.2285Z" fill="#263834"/>
</svg>
