<svg width="36" height="36" viewBox="0 0 36 36" fill="none" xmlns="http://www.w3.org/2000/svg">
<circle cx="18" cy="18" r="18" fill="#FFFCF2"/>
<g clip-path="url(#clip0_739_10898)">
<path d="M12.4142 15.6728C12.4142 15.8949 12.3598 16.0625 12.2465 16.1713C12.1378 16.2801 11.9157 16.339 11.6075 16.339H10.9141V15.0927H11.6075C11.9112 15.0927 12.1332 15.1471 12.2465 15.2332C12.3598 15.283 12.4142 15.4507 12.4142 15.6728ZM28 10.6784V22.0222C28 23.1326 27.1117 24.0208 26.0014 24.0208H24.6961V26.1283C24.6961 26.7945 24.1703 27.3202 23.5041 27.3202H22.5887C21.9225 27.3202 21.3967 26.7945 21.3967 26.1283V24.0208H14.6032V26.1283C14.6032 26.7945 14.0775 27.3202 13.4113 27.3202H12.4958C11.8296 27.3202 11.3039 26.7945 11.3039 26.1283V24.0208H9.99864C8.88828 24.0208 8 23.1326 8 22.0222V10.6784C8 9.56809 8.88828 8.67981 9.99864 8.67981H26.0014C27.1117 8.68434 28 9.57263 28 10.6784ZM13.6062 18.4736L12.5502 16.9781C13.0759 16.7832 13.3524 16.339 13.3524 15.6728C13.3524 15.1743 13.2119 14.8389 12.9354 14.6169C12.659 14.3948 12.1876 14.286 11.5486 14.286H9.96692V18.4736H10.9096V17.1412H11.5486L12.4641 18.4736L13.6062 18.4736ZM17.3768 17.6397H15.2422V16.7786H17.1276V15.9764H15.2422V15.1153H17.3225V14.286H14.2996V18.4736H17.3768V17.6397ZM22.0947 14.286H21.1521V16.978L19.099 14.286H18.2379V18.4736H19.1534V15.8405L21.1521 18.4736H22.0947V14.286ZM26.0603 14.286H22.7609V15.0881H23.9529V18.4736H24.8683V15.0881H26.0603V14.286Z" fill="#F8D65D"/>
</g>
<defs>
<clipPath id="clip0_739_10898">
<rect width="20" height="20" fill="white" transform="translate(8 8)"/>
</clipPath>
</defs>
</svg>
