<svg width="36" height="36" viewBox="0 0 36 36" fill="none" xmlns="http://www.w3.org/2000/svg">
<circle cx="18" cy="18" r="18" fill="#F9FFFE"/>
<path opacity="0.982" fill-rule="evenodd" clip-rule="evenodd" d="M12.5508 7.98047C13.3841 7.98047 14.2175 7.98047 15.0508 7.98047C16.2614 8.04781 17.4463 8.27568 18.6055 8.66406C18.9818 8.79667 19.3008 9.01152 19.5625 9.30859C19.7082 9.58573 19.6822 9.84615 19.4844 10.0898C19.0321 10.4624 18.5178 10.7164 17.9414 10.8516C15.4816 11.4215 13.0077 11.4866 10.5195 11.0469C9.79374 10.9143 9.10364 10.68 8.44922 10.3437C8.25761 10.2108 8.10136 10.0481 7.98047 9.85547C7.98047 9.71224 7.98047 9.56901 7.98047 9.42578C8.08831 9.24623 8.23154 9.0965 8.41016 8.97656C9.09634 8.60952 9.82551 8.36212 10.5977 8.23437C11.2517 8.12781 11.9028 8.04318 12.5508 7.98047Z" fill="#1B9B85"/>
<path opacity="0.981" fill-rule="evenodd" clip-rule="evenodd" d="M7.98047 11.4961C9.23546 12.0506 10.5506 12.3696 11.9258 12.4531C13.6919 12.6155 15.4497 12.5504 17.1992 12.2578C18.0434 12.1175 18.8506 11.8636 19.6211 11.4961C19.6666 12.1858 19.6732 12.8759 19.6406 13.5664C19.5321 13.8181 19.3564 14.0069 19.1133 14.1328C18.409 14.4848 17.6668 14.7191 16.8867 14.8359C14.7622 15.183 12.6398 15.17 10.5195 14.7969C9.79374 14.6643 9.10364 14.43 8.44922 14.0938C8.25761 13.9608 8.10136 13.798 7.98047 13.6055C7.98047 12.9023 7.98047 12.1992 7.98047 11.4961Z" fill="#1B9B85"/>
<path opacity="0.981" fill-rule="evenodd" clip-rule="evenodd" d="M7.98047 15.2461C9.23546 15.8006 10.5506 16.1196 11.9258 16.2031C13.6919 16.3655 15.4497 16.3004 17.1992 16.0078C18.0434 15.8675 18.8506 15.6136 19.6211 15.2461C19.6666 15.9358 19.6732 16.6259 19.6406 17.3164C19.5321 17.5681 19.3564 17.7569 19.1133 17.8828C18.409 18.2348 17.6668 18.4691 16.8867 18.5859C14.7622 18.933 12.6398 18.92 10.5195 18.5469C9.79374 18.4143 9.10364 18.18 8.44922 17.8438C8.25761 17.7108 8.10136 17.548 7.98047 17.3555C7.98047 16.6523 7.98047 15.9492 7.98047 15.2461Z" fill="#1B9B85"/>
<path opacity="0.982" fill-rule="evenodd" clip-rule="evenodd" d="M27.9805 20.2851C27.9805 20.4153 27.9805 20.5456 27.9805 20.6758C27.8172 20.9885 27.5698 21.2164 27.2383 21.3594C26.339 21.7424 25.4015 21.9768 24.4258 22.0625C22.4864 22.2865 20.5724 22.1563 18.6836 21.6719C18.1343 21.5308 17.659 21.2639 17.2578 20.8711C17.0435 20.4584 17.1281 20.1133 17.5117 19.8359C17.8731 19.5938 18.2637 19.4115 18.6836 19.2891C20.4543 18.8333 22.2512 18.6901 24.0742 18.8594C25.172 18.9287 26.2267 19.1762 27.2383 19.6016C27.5698 19.7445 27.8172 19.9724 27.9805 20.2851Z" fill="#1B9B85"/>
<path opacity="0.981" fill-rule="evenodd" clip-rule="evenodd" d="M7.98047 18.9961C9.11139 19.5023 10.2963 19.8083 11.5352 19.9141C13.019 20.0875 14.5034 20.094 15.9883 19.9336C15.9962 20.0308 15.9766 20.122 15.9297 20.207C15.9102 20.9621 15.9036 21.7173 15.9102 22.4727C13.818 22.7021 11.7477 22.5784 9.69922 22.1016C9.19124 21.9777 8.72249 21.7694 8.29297 21.4766C8.16471 21.3683 8.06054 21.2446 7.98047 21.1055C7.98047 20.4023 7.98047 19.6992 7.98047 18.9961Z" fill="#1B9B85"/>
<path opacity="0.971" fill-rule="evenodd" clip-rule="evenodd" d="M27.9805 22.3164C27.9805 22.7461 27.9805 23.1758 27.9805 23.6055C27.7012 24.0073 27.3236 24.2873 26.8477 24.4453C25.4591 24.8992 24.0334 25.114 22.5704 25.0898C21.2236 25.0981 19.9019 24.9223 18.6055 24.5625C18.1822 24.429 17.7916 24.2337 17.4337 23.9766C17.1446 23.6854 17.0404 23.3338 17.1212 22.9219C17.1342 22.72 17.1472 22.5182 17.1602 22.3164C18.0697 22.7783 19.0332 23.0713 20.0509 23.1953C22.0936 23.4796 24.1248 23.4145 26.1446 23C26.7906 22.8591 27.4026 22.6313 27.9805 22.3164Z" fill="#1B9B85"/>
<path opacity="0.981" fill-rule="evenodd" clip-rule="evenodd" d="M7.98047 22.7461C9.11139 23.2523 10.2963 23.5583 11.5352 23.6641C12.993 23.8359 14.4514 23.8424 15.9102 23.6836C15.9102 24.53 15.9102 25.3763 15.9102 26.2227C13.818 26.4521 11.7477 26.3284 9.69922 25.8516C9.19124 25.7277 8.72249 25.5194 8.29297 25.2266C8.16471 25.1183 8.06054 24.9946 7.98047 24.8555C7.98047 24.1523 7.98047 23.4492 7.98047 22.7461Z" fill="#1B9B85"/>
<path opacity="0.972" fill-rule="evenodd" clip-rule="evenodd" d="M27.9803 25.2461C27.9803 25.6758 27.9803 26.1055 27.9803 26.5352C27.7165 26.9086 27.3649 27.1756 26.9256 27.3359C25.8807 27.69 24.8129 27.9049 23.7225 27.9805C22.9542 27.9805 22.186 27.9805 21.4178 27.9805C20.3252 27.9132 19.2575 27.6984 18.2147 27.3359C17.8181 27.1995 17.4861 26.9716 17.2186 26.6523C17.1849 26.5904 17.1588 26.5252 17.1404 26.457C17.1079 26.0528 17.1144 25.6491 17.16 25.2461C18.3096 25.7907 19.5205 26.1097 20.7928 26.2031C22.8275 26.4156 24.8327 26.2594 26.8084 25.7344C27.2145 25.6028 27.6051 25.44 27.9803 25.2461Z" fill="#1B9B85"/>
</svg>
