<svg width="36" height="36" viewBox="0 0 36 36" fill="none" xmlns="http://www.w3.org/2000/svg">
<circle cx="18" cy="18" r="18" fill="#FFF6F5"/>
<g clip-path="url(#clip0_739_10897)">
<path d="M20.6588 19.9941C20.2923 19.9941 19.9941 20.2922 19.9941 20.6588C19.9941 21.0253 20.2923 21.3235 20.6588 21.3235C21.0254 21.3235 21.3235 21.0253 21.3235 20.6588C21.3235 20.2922 21.0254 19.9941 20.6588 19.9941Z" fill="#F85D5D"/>
<path d="M15.3414 14.6765C14.9749 14.6765 14.6768 14.9747 14.6768 15.3412C14.6768 15.7077 14.9749 16.0059 15.3414 16.0059C15.708 16.0059 16.0061 15.7077 16.0061 15.3412C16.0061 14.9747 15.7079 14.6765 15.3414 14.6765Z" fill="#F85D5D"/>
<path d="M18.0002 8.00012C12.4861 8.00012 8.0003 12.486 8.0003 18C8.0003 20.0352 8.60354 21.9774 9.74902 23.6443L8.07339 26.9955C7.94745 27.2469 7.98597 27.5494 8.17073 27.7619C8.30487 27.9159 8.49702 27.9999 8.69433 27.9999C8.76878 27.9999 8.84362 27.9882 8.91632 27.9636L12.9205 26.6112C14.4563 27.5208 16.2055 27.9999 18.0001 27.9999C23.5142 27.9999 28 23.5141 28 18C28 12.4859 23.5142 8.00012 18.0002 8.00012ZM13.3473 15.3412C13.3473 14.2417 14.2418 13.3471 15.3414 13.3471C16.441 13.3471 17.3355 14.2416 17.3355 15.3412C17.3355 16.4408 16.441 17.3353 15.3414 17.3353C14.2418 17.3353 13.3473 16.4408 13.3473 15.3412ZM15.65 21.2906C15.5201 21.4205 15.35 21.4854 15.18 21.4854C15.01 21.4854 14.8398 21.4205 14.7101 21.2906C14.4505 21.031 14.4505 20.6103 14.7101 20.3507L20.3501 14.7103C20.6097 14.4506 21.0304 14.4506 21.29 14.7103C21.5496 14.9699 21.5496 15.3906 21.29 15.6502L15.65 21.2906ZM20.659 22.6529C19.5594 22.6529 18.6649 21.7584 18.6649 20.6588C18.6649 19.5592 19.5593 18.6647 20.659 18.6647C21.7586 18.6647 22.6531 19.5592 22.6531 20.6588C22.6531 21.7584 21.7586 22.6529 20.659 22.6529Z" fill="#F85D5D"/>
</g>
<defs>
<clipPath id="clip0_739_10897">
<rect width="20" height="20" fill="white" transform="translate(8 8)"/>
</clipPath>
</defs>
</svg>
