<svg width="36" height="36" viewBox="0 0 36 36" fill="none" xmlns="http://www.w3.org/2000/svg">
<circle cx="18" cy="18" r="18" fill="#F9FFFE"/>
<path d="M18.0296 15.7725C15.7711 15.7725 13.9404 17.6032 13.9404 19.8616C13.9404 22.1198 15.7711 23.9507 18.0296 23.9507C20.2879 23.9507 22.1186 22.1198 22.1186 19.8616C22.1186 17.6032 20.288 15.7725 18.0296 15.7725ZM18.3701 21.9713C18.3638 21.9727 18.333 21.9764 18.333 22.0182V22.4647C18.333 22.5868 18.231 22.6862 18.1058 22.6862H17.9031C17.7779 22.6862 17.676 22.5868 17.676 22.4647V22.0403C17.676 22.009 17.6416 21.9969 17.6349 21.9958C17.6098 21.992 17.045 21.9029 16.7532 21.7509C16.6801 21.7129 16.6229 21.6271 16.6601 21.5216L16.7644 21.239C16.7959 21.1543 16.8747 21.0996 16.9651 21.0996C16.9983 21.0996 17.0304 21.1069 17.0608 21.1213C17.0655 21.1236 17.5407 21.3462 17.8919 21.3462C18.3031 21.3462 18.5901 21.1256 18.5901 20.81C18.5901 20.52 18.3874 20.3222 17.8906 20.1271C17.2692 19.8909 16.6936 19.5763 16.6936 18.88C16.6936 18.3214 17.0714 17.8785 17.6759 17.7346C17.6888 17.7315 17.7243 17.7174 17.7243 17.6847L17.7237 17.2584C17.7237 17.1363 17.8257 17.0369 17.9507 17.0369H18.1468C18.2719 17.0369 18.3739 17.1363 18.3739 17.2584L18.3755 17.6638C18.3755 17.6951 18.4023 17.7009 18.41 17.7022C18.4149 17.703 18.8938 17.7856 19.1388 17.8923C19.2125 17.9241 19.2703 18.0128 19.2321 18.1147L19.1228 18.3942C19.0909 18.4758 19.0139 18.5285 18.9268 18.5285C18.8911 18.5285 18.8551 18.5193 18.823 18.5022C18.8203 18.5007 18.515 18.3438 18.117 18.3438C17.6671 18.3438 17.5076 18.59 17.5076 18.8007C17.5076 19.064 17.6814 19.2099 18.2828 19.4509C19.0734 19.7632 19.4108 20.1559 19.4108 20.7636C19.4109 21.3553 19.0141 21.8265 18.3701 21.9713Z" fill="#1B9B85"/>
<path d="M20.7996 10.2739C20.7094 10.2266 20.5122 10.114 20.7086 9.92347L23.0089 7.1972C23.5644 6.53872 23.3141 6 22.4527 6H13.6066C12.7452 6 12.4948 6.53872 13.0504 7.1972L15.4044 9.98715C15.587 10.1502 15.2951 10.2541 15.1783 10.3174C11.2522 12.4442 8.3999 18.5437 8.3999 22.8692C8.3999 28.1875 12.7113 30 18.0296 30C23.348 30 27.6594 28.1875 27.6594 22.8692C27.6594 18.5138 24.7676 12.36 20.7996 10.2739ZM18.0296 25.1843C15.0899 25.1843 12.7069 22.8012 12.7069 19.8615C12.7069 16.922 15.0899 14.5389 18.0296 14.5389C20.9692 14.5389 23.3522 16.922 23.3522 19.8615C23.3522 22.8011 20.9693 25.1843 18.0296 25.1843Z" fill="#1B9B85"/>
</svg>
