<svg width="36" height="36" viewBox="0 0 36 36" fill="none" xmlns="http://www.w3.org/2000/svg">
<circle cx="18" cy="18" r="18" fill="#F7FFEF"/>
<g clip-path="url(#clip0_739_10899)">
<path d="M14.6121 10.2075C16.0483 10.2075 17.2126 11.3718 17.2126 12.808C17.2126 14.2441 16.0483 15.4084 14.6121 15.4084C13.1759 15.4084 12.0116 14.2441 12.0116 12.808C12.0116 11.3718 13.1759 10.2075 14.6121 10.2075ZM10.422 19.954C10.422 19.7587 10.5475 19.6263 10.7497 19.6263C10.9519 19.6263 11.0773 19.7518 11.0773 19.954V27.2185H18.2234V19.954C18.2234 19.7587 18.3488 19.6263 18.551 19.6263C18.7462 19.6263 18.8787 19.7518 18.8787 19.954V27.2185H21.1515V19.2987C21.1515 17.507 19.6874 16.0498 17.9027 16.0498H17.2473L15.3371 19.0198L15.107 16.7958L15.4208 16.0428H14.0125L14.3263 16.7958L14.0823 19.0337L12.172 16.0498H11.4051C9.61336 16.0498 8.15625 17.5139 8.15625 19.2987V27.2186H10.4291V19.9541L10.422 19.954ZM25.5527 15.0726C25.1962 14.9271 25.0362 14.8544 25.0362 14.6871C25.0362 14.5416 25.1599 14.418 25.4363 14.418C25.7054 14.418 25.909 14.4907 26.0109 14.5416L26.1491 14.0398C26.0181 13.9888 25.8654 13.938 25.6545 13.9161V13.5088H24.9417V13.9816C24.5853 14.1052 24.3744 14.3888 24.3744 14.738C24.3744 15.138 24.6653 15.3926 25.138 15.5598C25.4726 15.6762 25.5962 15.778 25.5962 15.9453C25.5962 16.1271 25.4435 16.2363 25.1598 16.2363C24.8907 16.2363 24.6362 16.1417 24.4689 16.069L24.3452 16.5854C24.4689 16.6581 24.6944 16.7163 24.9344 16.7381V17.1381H25.6472V16.6727C26.0472 16.5272 26.2363 16.2362 26.2363 15.8872C26.2655 15.4944 26.04 15.2471 25.5527 15.0726ZM23.7562 11.3414H26.8401V11.8578H23.7562V11.3414ZM23.7562 10.3159H26.8401V10.8323H23.7562V10.3159ZM27.8438 10.1631C27.8292 9.42852 27.2473 8.84664 26.5346 8.79578C26.5128 8.79578 26.4764 8.78852 26.4546 8.78852C26.4546 8.78852 21.9088 8.78125 21.887 8.78125C21.5961 8.78125 21.3197 8.86852 21.1016 9.02125C20.9124 9.15219 20.7524 9.32672 20.6506 9.53766C20.5488 9.7268 20.4906 9.94492 20.4906 10.1777C20.4906 10.185 20.4906 10.1923 20.4906 10.1995C20.4906 10.2068 20.4906 10.2068 20.4906 10.2141C20.4906 10.9777 21.1088 11.6032 21.8798 11.6032C22.2143 11.6032 22.5198 11.4795 22.7598 11.2832V11.7705V14.1561V14.6725V16.469V18.0109H27.8438V10.3159C27.8438 10.265 27.8438 10.2068 27.8438 10.1631ZM27.3346 10.3159V11.2614V17.4945H23.2689C23.2689 17.4945 23.2762 10.2213 23.2762 10.185C23.2762 9.85773 23.1525 9.54492 22.9562 9.30492H26.4764C26.9637 9.39219 27.3273 9.81406 27.3273 10.3159H27.3346ZM23.7562 12.367H26.8401V12.8834H23.7562V12.367Z" fill="#7ADD18"/>
</g>
<defs>
<clipPath id="clip0_739_10899">
<rect width="20" height="20" fill="white" transform="translate(8 8)"/>
</clipPath>
</defs>
</svg>
