<svg width="36" height="36" viewBox="0 0 36 36" fill="none" xmlns="http://www.w3.org/2000/svg">
<circle cx="18" cy="18" r="18" fill="#F2F6FF"/>
<path d="M9.83203 19.323C9.75775 18.8926 9.71847 18.4509 9.71847 18.0004C9.71847 17.611 9.74793 17.2281 9.80376 16.8534C9.11187 16.5364 8.49831 16.0848 8 15.5333V15.9886C8.00005 17.3763 8.72667 18.5999 9.83203 19.323Z" fill="#5D88F8"/>
<path d="M12.1598 24.0057C12.2779 24.0057 12.3948 24.0007 12.5105 23.9913C11.5693 23.1839 10.8192 22.1728 10.3344 21.0301C9.42438 20.721 8.62233 20.1879 8 19.4991V19.9829C8 22.2046 9.8624 24.0057 12.1598 24.0057Z" fill="#5D88F8"/>
<path d="M12.1598 25.3246C10.5024 25.3246 9.01335 24.6149 8 23.4934V23.9772C8 26.1989 9.8624 28 12.1598 28C13.8004 28 15.219 27.0813 15.8961 25.747C15.231 25.578 14.5985 25.3307 14.0094 25.016C13.4309 25.2156 12.8083 25.3246 12.1598 25.3246Z" fill="#5D88F8"/>
<path d="M10.122 15.5303C10.9878 12.9542 13.1694 10.9468 15.8965 10.2537C15.2195 8.919 13.8007 8 12.1598 8C9.86254 8 8.00023 9.80085 8 12.0224C8.00018 13.5285 8.85569 14.8407 10.122 15.5303Z" fill="#5D88F8"/>
<path d="M26.1962 16.8534C26.2521 17.2281 26.2815 17.611 26.2815 18.0004C26.2815 18.4509 26.2423 18.8926 26.168 19.323C27.2733 18.6 28 17.3764 28 15.9886V15.5333C27.5017 16.0848 26.8881 16.5364 26.1962 16.8534Z" fill="#5D88F8"/>
<path d="M25.6653 21.0301C25.1806 22.1728 24.4305 23.1839 23.4893 23.9914C23.6049 24.0007 23.7218 24.0057 23.84 24.0057C26.1373 24.0057 27.9997 22.2047 27.9997 19.9829V19.4991C27.3774 20.1879 26.5754 20.721 25.6653 21.0301Z" fill="#5D88F8"/>
<path d="M23.8404 25.3246C23.1918 25.3246 22.5693 25.2155 21.9907 25.016C21.4017 25.3306 20.7691 25.5779 20.104 25.7469C20.7811 27.0813 22.1997 27.9999 23.8404 27.9999C26.1377 27.9999 28.0001 26.1989 28.0001 23.9771V23.4933C26.9868 24.6149 25.4977 25.3246 23.8404 25.3246Z" fill="#5D88F8"/>
<path d="M25.878 15.5304C27.1445 14.8408 28 13.5285 28 12.0228C28 9.80107 26.1376 8 23.8402 8C22.1993 8 20.7805 8.919 20.1035 10.2537C22.8306 10.9468 25.0122 12.9542 25.878 15.5304Z" fill="#5D88F8"/>
<path d="M16.7246 16.0148C16.7246 16.5368 16.9058 16.8672 17.3181 17.0742V14.9734C16.9617 15.1923 16.7246 15.5772 16.7246 16.0148Z" fill="#5D88F8"/>
<path d="M18.6821 21.0274C19.0385 20.8085 19.2756 20.4236 19.2756 19.986C19.2756 19.464 19.0944 19.1336 18.6821 18.9266V21.0274Z" fill="#5D88F8"/>
<path d="M25.2821 18.0232C25.2821 14.3285 22.1849 11.3333 18.3644 11.3333C14.5439 11.3333 11.4468 14.3284 11.4468 18.0232C11.4468 21.7179 14.5439 24.713 18.3644 24.713C22.1849 24.713 25.2821 21.7179 25.2821 18.0232ZM19.16 17.5746C20.3489 17.9378 21.0037 18.8022 21.0037 20.0087C21.0037 21.188 20.1721 22.1827 19.0463 22.4742V23.0272H17.6825V22.4742C16.5567 22.1827 15.7251 21.1881 15.7251 20.0087H17.089C17.089 20.4463 17.3261 20.8312 17.6825 21.0502V18.5064L17.5688 18.4717C16.3799 18.1085 15.7251 17.2441 15.7251 16.0376C15.7251 14.8583 16.5567 13.8636 17.6825 13.5721V13.0191H19.0463V13.5721C20.1721 13.8636 21.0037 14.8582 21.0037 16.0376H19.6398C19.6398 15.5999 19.4027 15.2151 19.0463 14.9961V17.5399L19.16 17.5746Z" fill="#5D88F8"/>
</svg>
