<svg width="36" height="36" viewBox="0 0 36 36" fill="none" xmlns="http://www.w3.org/2000/svg">
<circle cx="18" cy="18" r="18" fill="#F9FFFE"/>
<path d="M21.2254 12C20.4426 12 19.6926 12.1434 19 12.4016C20.6721 13.8361 21.7336 15.9672 21.7336 18.3402C21.7336 20.7172 20.6721 22.8443 19 24.2787C19.6926 24.5369 20.4426 24.6803 21.2254 24.6803C24.7295 24.6803 27.5656 21.8402 27.5656 18.3402C27.5656 14.8402 24.7254 12 21.2254 12Z" fill="#1B9B85"/>
<path d="M14.3402 12.0098C10.8402 12.0098 8 14.8459 8 18.35C8 21.8541 10.8402 24.6902 14.3402 24.6902C17.8443 24.6902 20.6803 21.85 20.6803 18.35C20.6844 14.8459 17.8443 12.0098 14.3402 12.0098ZM16.5533 21.5631C16.3648 21.6492 16.1639 21.7229 15.9631 21.7762C15.1885 21.9893 14.418 21.9975 13.6475 21.7475C12.7213 21.4484 12.1025 20.8131 11.7336 19.9279C11.6639 19.7557 11.6148 19.5754 11.5615 19.3951H10.8361C10.7131 19.3951 10.6148 19.2967 10.6148 19.1738V18.682C10.6148 18.559 10.7131 18.4606 10.8361 18.4606H11.4385C11.4385 18.3254 11.4385 18.1943 11.4385 18.0631H10.8361C10.7131 18.0631 10.6148 17.9647 10.6148 17.8418V17.35C10.6148 17.227 10.7131 17.1287 10.8361 17.1287H11.6025L11.627 17.0508C11.832 16.3951 12.1885 15.8377 12.7336 15.4115C13.168 15.0754 13.668 14.891 14.2049 14.8049C14.9713 14.682 15.709 14.7885 16.4262 15.0672C16.4713 15.0836 16.5164 15.1082 16.5615 15.1328C16.7336 15.2352 16.7787 15.3623 16.7008 15.5467C16.6189 15.7393 16.541 15.9361 16.4508 16.1246C16.377 16.2885 16.2705 16.3418 16.0943 16.3008C15.8525 16.2475 15.6148 16.1697 15.3689 16.1205C14.8566 16.018 14.3484 16.0098 13.8484 16.2065C13.4221 16.3746 13.1598 16.7024 12.9795 17.1082C12.9795 17.1123 12.9754 17.1164 12.9754 17.1246H14.4631C14.5861 17.1246 14.6844 17.2229 14.6844 17.3459V17.8377C14.6844 17.9606 14.5861 18.059 14.4631 18.059H12.7582C12.7582 18.1902 12.7582 18.3213 12.7582 18.4565H14.4631C14.5861 18.4565 14.6844 18.5549 14.6844 18.6779V19.1697C14.6844 19.2926 14.5861 19.391 14.4631 19.391H12.9057C13.0943 19.9279 13.3975 20.3418 13.9713 20.5221C14.4303 20.6656 14.8934 20.6574 15.3566 20.5631C15.5984 20.5139 15.832 20.4402 16.0738 20.3869C16.2623 20.3459 16.3648 20.3951 16.4426 20.5672C16.5328 20.7598 16.6148 20.9565 16.6926 21.1533C16.7869 21.3377 16.7377 21.4811 16.5533 21.5631Z" fill="#1B9B85"/>
</svg>
