<svg width="36" height="36" viewBox="0 0 36 36" fill="none" xmlns="http://www.w3.org/2000/svg">
<circle cx="18" cy="18" r="18" fill="#F9FFFE"/>
<path d="M26.8118 18.152H9.18816H8V23.9895C8 24.9026 8.74293 25.6456 9.65609 25.6456H26.344C27.2571 25.6456 28 24.9026 28 23.9895V18.152H26.8118ZM14.4818 20.5285H9.74215V19.3404H14.4818V20.5285ZM20.3698 20.5285H15.6302V19.3404H20.3698V20.5285H20.3698ZM26.2579 20.5285H21.5182V19.3404H26.2579V20.5285Z" fill="#1B9B85"/>
<path d="M26.3439 11.0045H9.65609C8.74293 11.0045 8 11.7474 8 12.6606V13.8256H28V12.6606C28 11.7474 27.2571 11.0045 26.3439 11.0045Z" fill="#1B9B85"/>
<path d="M8 15.0138V15.4098V16.9639H9.18816H26.8118H28V15.4098V15.0138H8Z" fill="#1B9B85"/>
</svg>
