<svg width="36" height="36" viewBox="0 0 36 36" fill="none" xmlns="http://www.w3.org/2000/svg">
<circle cx="18" cy="18" r="18" fill="#F9FFFE"/>
<path d="M25.0264 15.1733H23.0614V13.4119C23.0614 10.0032 21.4909 8 18.3552 8C15.2196 8 13.6494 10.0032 13.6494 13.4116V15.1729H11.574C10.7102 15.1729 10.0098 15.8734 10.0098 16.7372V25.5501C10.0098 26.2708 10.5003 26.8966 11.2001 27.0693C12.7034 27.44 15.4236 28 18.1438 28C20.8862 28 23.771 27.465 25.359 27.1165C26.0782 26.9588 26.5906 26.324 26.5906 25.5879V16.7375C26.5906 15.8734 25.8902 15.1733 25.0264 15.1733ZM20.1698 19.9539C19.9233 20.0362 19.658 19.9032 19.5757 19.6579C19.4731 19.351 19.1017 18.9925 18.3944 18.9925C17.8122 18.9925 17.4671 19.3823 17.4271 19.7677C17.3773 20.2486 17.7746 20.6249 18.4904 20.7751C19.9451 21.0798 20.3719 22.0549 20.2949 22.7973C20.2154 23.5676 19.6292 24.1729 18.8637 24.3537V24.8937C18.8637 25.1527 18.6535 25.363 18.3944 25.363C18.1354 25.363 17.9252 25.1527 17.9252 24.8937V24.3729C17.0151 24.218 16.4967 23.6267 16.3227 23.1083C16.2405 22.8624 16.3731 22.5965 16.6187 22.5142C16.8659 22.4322 17.1305 22.5649 17.2128 22.8102C17.3154 23.1171 17.6868 23.4756 18.3941 23.4756C18.9763 23.4756 19.3214 23.0858 19.3614 22.7004C19.4111 22.2196 19.0138 21.8431 18.2981 21.693C16.8433 21.3883 16.4166 20.4132 16.4935 19.6708C16.573 18.9005 17.1593 18.2952 17.9248 18.1144V17.5741C17.9248 17.3151 18.135 17.1048 18.3941 17.1048C18.6531 17.1048 18.8633 17.3151 18.8633 17.5741V18.0949C19.7734 18.2498 20.2918 18.8411 20.4657 19.3595C20.548 19.6057 20.4153 19.8713 20.1698 19.9539ZM20.7085 15.1733H16.0024V12.9414C16.0024 11.2414 16.9403 10.3533 18.3553 10.3533C19.7703 10.3533 20.7082 11.2414 20.7082 12.9414V15.1733H20.7085Z" fill="#1B9B85"/>
</svg>
