<svg width="36" height="36" viewBox="0 0 36 36" fill="none" xmlns="http://www.w3.org/2000/svg">
<circle cx="18" cy="18" r="18" fill="#F5FFF8"/>
<g clip-path="url(#clip0_739_10901)">
<path d="M12.7151 12.3371C12.7923 11.3841 13.6006 10.6375 14.5552 10.6375C14.6055 10.6375 14.6565 10.6396 14.707 10.6438C15.7231 10.726 16.4826 11.6195 16.4005 12.6356C16.3232 13.5886 15.5151 14.3352 14.5604 14.3352C14.5102 14.3352 14.4592 14.3331 14.4087 14.329C13.3927 14.2467 12.633 13.3531 12.7151 12.3371ZM13.3692 15.0815L12.8348 17.6087L14.176 17.7933L14.1896 17.1996C14.1897 17.198 14.1897 17.1964 14.1897 17.1949L14.2326 15.3214C13.9264 15.2864 13.6361 15.2041 13.3692 15.0815ZM15.2401 15.2574L15.1984 17.0799L16.2169 16.921L15.7453 15.079C15.5841 15.1537 15.4151 15.2139 15.2401 15.2574ZM25.8593 8.5029V23.5545C25.8593 23.5573 25.8585 23.5601 25.8585 23.5629C25.858 23.5921 25.8556 23.6213 25.85 23.6499C25.8494 23.653 25.8482 23.656 25.8476 23.6591C25.8423 23.6845 25.8348 23.7092 25.8255 23.7335C25.8224 23.7417 25.8187 23.7497 25.8151 23.7578C25.8065 23.7773 25.7966 23.7961 25.7855 23.8145C25.781 23.8219 25.7768 23.8293 25.772 23.8366C25.7556 23.8607 25.7376 23.884 25.7168 23.9055L21.8768 27.848C21.853 27.8725 21.8269 27.8942 21.7991 27.9131C21.7863 27.9218 21.7722 27.9276 21.7588 27.935C21.743 27.9438 21.7278 27.9537 21.7111 27.9608C21.695 27.9676 21.6778 27.9712 21.661 27.9763C21.6459 27.9808 21.6314 27.9869 21.6159 27.99C21.5856 27.9962 21.5548 27.9988 21.5239 27.9993C21.5213 27.9993 21.5189 28 21.5165 28H10.6435C10.3657 28 10.1406 27.7748 10.1406 27.4971V8.5029C10.1406 8.2252 10.3657 8 10.6435 8H25.3564C25.6342 8 25.8593 8.2252 25.8593 8.5029ZM18.4268 11.0866C18.4268 11.3643 18.6519 11.5895 18.9297 11.5895H23.4365C23.7143 11.5895 23.9394 11.3643 23.9394 11.0866C23.9394 10.8089 23.7143 10.5837 23.4365 10.5837H18.9297C18.6519 10.5837 18.4268 10.8088 18.4268 11.0866ZM18.4268 13.2235C18.4268 13.5012 18.6519 13.7264 18.9297 13.7264H23.4365C23.7143 13.7264 23.9394 13.5012 23.9394 13.2235C23.9394 12.9458 23.7143 12.7206 23.4365 12.7206H18.9297C18.6519 12.7206 18.4268 12.9457 18.4268 13.2235ZM18.4268 15.3603C18.4268 15.638 18.6519 15.8632 18.9297 15.8632H23.4365C23.7143 15.8632 23.9394 15.638 23.9394 15.3603C23.9394 15.0826 23.7143 14.8574 23.4365 14.8574H18.9297C18.6519 14.8574 18.4268 15.0826 18.4268 15.3603ZM12.1624 18.5315L14.5974 18.8667C14.6203 18.8698 14.6431 18.8714 14.666 18.8714C14.7847 18.8714 14.9005 18.8293 14.992 18.7513C15.1012 18.6584 15.1654 18.5233 15.1688 18.3799L15.1751 18.1016L16.919 17.8296C17.0591 17.8077 17.1834 17.7278 17.2613 17.6094C17.3393 17.491 17.3638 17.3453 17.3286 17.2079L16.6225 14.4493C17.0598 13.9902 17.3488 13.3867 17.4031 12.7165C17.53 11.1478 16.3569 9.76821 14.7882 9.64108C14.7108 9.63484 14.6325 9.63162 14.5553 9.63162C13.0805 9.63162 11.8319 10.7843 11.7127 12.2559C11.6452 13.0902 11.9453 13.871 12.4772 14.4383L11.7391 17.9291C11.7102 18.0657 11.7394 18.2082 11.8197 18.3224C11.8999 18.4368 12.0241 18.5125 12.1624 18.5315ZM23.4364 21.3617C23.7142 21.3617 23.9393 21.1365 23.9393 20.8588C23.9393 20.5811 23.7142 20.3559 23.4364 20.3559H12.5109C12.2331 20.3559 12.008 20.5811 12.008 20.8588C12.008 21.1365 12.2331 21.3617 12.5109 21.3617H23.4364ZM24.1645 24.0574H22.0193V26.26L24.1645 24.0574Z" fill="#569990"/>
</g>
<defs>
<clipPath id="clip0_739_10901">
<rect width="20" height="20" fill="white" transform="translate(8 8)"/>
</clipPath>
</defs>
</svg>
