<svg width="36" height="36" viewBox="0 0 36 36" fill="none" xmlns="http://www.w3.org/2000/svg">
<circle cx="18" cy="18" r="18" fill="#FFF9E9"/>
<g clip-path="url(#clip0_739_10900)">
<path d="M8 11.0629V17.224H16.4798L16.1741 16.907C16.1613 16.9058 16.1508 16.9051 16.1373 16.9039C15.978 16.8911 15.7571 16.8709 15.498 16.8416C14.9792 16.7819 14.3102 16.6853 13.6724 16.5283C13.2464 16.4224 12.8347 16.2932 12.4749 16.111C12.2698 16.0062 12.0782 15.8841 11.9107 15.7177C11.3747 15.182 11.1039 14.4743 11.1046 13.7716C11.1039 13.0687 11.374 12.3607 11.9107 11.8243C12.4471 11.2883 13.1548 11.0178 13.8572 11.0182C14.5596 11.0178 15.2677 11.2883 15.8038 11.8247C15.9585 11.9802 16.0746 12.1568 16.1748 12.346C16.2748 12.5354 16.3578 12.7393 16.431 12.9527C16.5768 13.3794 16.6835 13.847 16.7654 14.2978C16.9017 15.0517 16.9675 15.7567 16.9937 16.1009L17.2243 16.3398V8H11.0629C9.37141 8 8 9.37105 8 11.0629Z" fill="#C68A16"/>
<path d="M22.9746 15.0866C23.1079 15.0194 23.203 14.9503 23.2469 14.9048C23.5613 14.59 23.7161 14.1836 23.7165 13.7712C23.7161 13.3587 23.5613 12.9515 23.2473 12.6376H23.2469C22.9321 12.3231 22.5257 12.1687 22.1133 12.168C21.7008 12.1688 21.2944 12.3235 20.9796 12.6376C20.9405 12.6758 20.8834 12.751 20.826 12.8569C20.7677 12.9625 20.7084 13.0973 20.6532 13.2506C20.5416 13.5571 20.4462 13.9365 20.3711 14.32C20.272 14.8233 20.2066 15.3315 20.166 15.7184C20.2224 15.7128 20.2809 15.7064 20.3418 15.6993C20.8301 15.6433 21.4612 15.5509 22.0231 15.4123C22.3973 15.3206 22.7413 15.2061 22.9746 15.0866Z" fill="#C68A16"/>
<path d="M24.9373 8H18.7759V16.3096L18.9772 16.1004C18.9784 16.0843 18.9795 16.0704 18.981 16.0527C18.9938 15.8935 19.0137 15.6726 19.0433 15.4134C19.1027 14.8951 19.1992 14.2253 19.3562 13.5871C19.4618 13.1608 19.5917 12.7495 19.7735 12.3889C19.8791 12.1834 20.0012 11.9918 20.1672 11.8246C20.7032 11.2882 21.4113 11.0178 22.1137 11.0182C22.8161 11.0178 23.5242 11.2882 24.0602 11.8243C24.5966 12.3607 24.8671 13.068 24.8667 13.7711C24.8671 14.4736 24.5966 15.182 24.0602 15.718C23.9043 15.8724 23.7278 15.9881 23.5388 16.0888C23.3491 16.1887 23.1455 16.2717 22.9322 16.3449C22.5058 16.4903 22.0386 16.5966 21.5878 16.6785C20.8426 16.8137 20.1454 16.8798 19.7968 16.9069L19.491 17.2239H28.0002V11.0629C28.0002 9.37105 26.6288 8 24.9373 8Z" fill="#C68A16"/>
<path d="M22.6309 21.9531L21.803 22.7505L18.7754 19.6076V28H24.9369C26.6284 28 27.9998 26.629 27.9998 24.9371V18.7757H19.5703L22.6309 21.9531Z" fill="#C68A16"/>
<path d="M13.3395 21.9531L16.4002 18.7757H8V24.9371C8 26.629 9.37141 28 11.0629 28H17.2243V19.5776L14.1675 22.7506L13.3395 21.9531Z" fill="#C68A16"/>
<path d="M15.4986 13.8613C15.407 13.4872 15.292 13.1435 15.1726 12.9102C15.1054 12.7765 15.0362 12.6819 14.9907 12.6376C14.6763 12.3235 14.2695 12.1687 13.8571 12.168C13.4446 12.1688 13.0382 12.3231 12.7234 12.6376C12.4094 12.9516 12.2546 13.3588 12.2539 13.7715C12.2546 14.1836 12.4094 14.5908 12.7234 14.9048C12.7618 14.9439 12.8369 15.001 12.9428 15.0585C13.048 15.1167 13.1828 15.1756 13.3357 15.2308C13.6426 15.3421 14.0216 15.4378 14.4048 15.513C14.9084 15.6125 15.4175 15.6779 15.8047 15.7184C15.7991 15.6624 15.7923 15.6042 15.7856 15.5434C15.73 15.0555 15.6376 14.424 15.4986 13.8613Z" fill="#C68A16"/>
</g>
<defs>
<clipPath id="clip0_739_10900">
<rect width="20" height="20" fill="white" transform="translate(8 8)"/>
</clipPath>
</defs>
</svg>
