<svg width="22" height="22" viewBox="0 0 22 22" fill="none" xmlns="http://www.w3.org/2000/svg">
<path fill-rule="evenodd" clip-rule="evenodd" d="M14.9202 11.7988C14.9725 11.5407 15 11.2736 15 11C15 8.79086 13.2091 7 11 7C10.7264 7 10.4593 7.02746 10.2012 7.07977L14.9202 11.7988ZM7.66676 8.78799C7.24547 9.42156 7 10.1821 7 11C7 13.2091 8.79086 15 11 15C11.8179 15 12.5784 14.7545 13.212 14.3332L11.7381 12.8594C11.5098 12.9501 11.2607 13 11 13C9.89543 13 9 12.1046 9 11C9 10.7393 9.04988 10.4902 9.14063 10.2619L7.66676 8.78799Z" fill="#DBDBDB"/>
<path fill-rule="evenodd" clip-rule="evenodd" d="M15.3366 16.4579L14.2348 15.3561C13.2161 15.9004 12.1228 16.25 11 16.25C9.40119 16.25 7.86216 15.5412 6.51314 14.5706C5.17004 13.6043 4.07857 12.4238 3.39089 11.5889C3.18306 11.3366 3.08071 11.2092 3.01939 11.1064C2.97948 11.0395 2.9796 11.0205 2.97972 11.0029L2.97974 11L2.97972 10.9971C2.9796 10.9795 2.97948 10.9605 3.01939 10.8936C3.08071 10.7908 3.18306 10.6634 3.39089 10.4111C4.05821 9.60091 5.10575 8.46532 6.39448 7.5158L5.32296 6.44428C3.98311 7.46349 2.91313 8.6318 2.23307 9.45747C2.21055 9.4848 2.18765 9.51236 2.16451 9.54021L2.16443 9.54031C1.84447 9.92535 1.47974 10.3643 1.47974 11C1.47974 11.6357 1.84447 12.0747 2.16443 12.4597C2.18759 12.4876 2.21052 12.5152 2.23307 12.5425C2.96548 13.4318 4.15016 14.7184 5.63712 15.7882C7.11816 16.8538 8.9631 17.75 11 17.75C12.5897 17.75 14.0625 17.2041 15.3366 16.4579ZM7.99794 4.87662C8.93036 4.4931 9.93915 4.25 11 4.25C13.0369 4.25 14.8819 5.14624 16.3629 6.21178C17.8499 7.28159 19.0345 8.56824 19.767 9.45747C19.7895 9.48483 19.8124 9.51243 19.8356 9.5403C20.1556 9.92534 20.5203 10.3643 20.5203 11C20.5203 11.6357 20.1556 12.0747 19.8356 12.4597C19.8258 12.4715 19.816 12.4833 19.8062 12.4951C19.793 12.511 19.7799 12.5268 19.767 12.5425C19.2834 13.1296 18.6027 13.8899 17.768 14.6467L16.706 13.5847C17.4938 12.8768 18.1439 12.1538 18.6091 11.5889C18.817 11.3366 18.9193 11.2092 18.9806 11.1064C19.0205 11.0395 19.0204 11.0205 19.0203 11.0029L19.0203 11L19.0203 10.9971C19.0204 10.9795 19.0205 10.9605 18.9806 10.8936C18.9193 10.7908 18.817 10.6634 18.6091 10.4111C17.9214 9.57619 16.83 8.3957 15.4869 7.4294C14.1379 6.45883 12.5988 5.75 11 5.75C10.3775 5.75 9.76403 5.85746 9.16732 6.046L7.99794 4.87662Z" fill="#DBDBDB"/>
<path d="M4 1L20 17" stroke="#DBDBDB" stroke-width="1.5"/>
</svg>
