<svg width="22" height="22" viewBox="0 0 22 22" fill="none" xmlns="http://www.w3.org/2000/svg">
<path fill-rule="evenodd" clip-rule="evenodd" d="M6 3.75012C5.68351 3.75012 5.3742 3.77406 5.07284 3.82308C2.07211 4.23233 0.25 6.6458 0.25 9.81994V15.1803C0.25 16.925 0.793549 18.4434 1.81262 19.536C2.83918 20.6365 4.2991 21.2501 6 21.2501H16C17.7009 21.2501 19.1608 20.6365 20.1874 19.536C21.2065 18.4434 21.75 16.925 21.75 15.1803V15.1384C21.5808 15.2106 21.3974 15.2501 21.2059 15.2501H17.6765C16.3364 15.2501 15.25 14.0189 15.25 12.5001C15.25 10.9813 16.3364 9.75012 17.6765 9.75012H21.2059C21.3974 9.75012 21.5808 9.78964 21.75 9.86187V9.81994C21.75 6.6238 19.8967 4.1995 16.868 3.81232C16.5676 3.76058 16.2713 3.75012 16 3.75012H6ZM17.6765 13.7501C17.0673 13.7501 16.5735 13.1905 16.5735 12.5001C16.5735 11.8098 17.0673 11.2501 17.6765 11.2501H21.2059C21.3277 11.2501 21.4265 11.3621 21.4265 11.5001V13.5001C21.4265 13.6382 21.3277 13.7501 21.2059 13.7501H17.6765Z" fill="#1B9B85"/>
<path d="M15.7596 1.14471C15.7027 1.10217 15.6364 1.05009 15.5627 0.992172C15.2807 0.770576 14.8897 0.463392 14.5003 0.276978C14.2322 0.148623 13.9084 0.0445138 13.5459 0.0502771C13.1711 0.056234 12.8082 0.17892 12.474 0.421652L12.4456 0.442263L9.61017 2.93693L9.54032 3.00006H16.5816C16.8844 3.00006 17.2152 3.01022 17.5505 3.06048C17.7441 3.08202 17.9335 3.11006 18.1183 3.14435L15.778 1.1585L15.7596 1.14471Z" fill="#1B9B85"/>
<path d="M7.54032 3.00006H5.41877C5.06548 3.00006 4.7202 3.02331 4.3838 3.07093C3.96932 3.12013 3.57498 3.19913 3.20215 3.30565L3.61017 2.93693L6.44561 0.442263L6.47399 0.421652C6.80824 0.17892 7.17112 0.056234 7.54587 0.0502771C7.90845 0.0445138 8.23216 0.148623 8.50027 0.276978C8.88966 0.463392 9.28066 0.770576 9.56272 0.992172C9.61174 1.03068 9.65747 1.0666 9.69932 1.09886L7.61017 2.93693L7.54032 3.00006Z" fill="#1B9B85"/>
</svg>
